<svg width="848" height="127" viewBox="0 0 848 127" fill="none" xmlns="http://www.w3.org/2000/svg">
<path d="M87.2457 51.84H176.706L180.486 55.8L149.346 126.36L4.6257 126.18H4.2657L0.845703 122.58V122.4L17.0457 86.04H117.126L120.366 78.66L116.586 74.88H27.1257L23.5257 70.92L54.6657 0.359998H199.386L203.166 4.31999L187.146 40.68H87.0657L83.6457 48.24L87.2457 51.84ZM162.389 121.86L216.029 -8.58307e-06H360.029L363.989 4.13999L345.449 46.08H245.909L232.769 75.78L236.729 79.92H330.509L310.169 126H166.349L162.389 121.86ZM454.097 50.04L450.137 46.08H406.397L393.257 75.78L397.217 79.92H440.957L454.097 50.04ZM524.477 4.13999L470.657 126H326.837L322.877 121.86L376.517 -8.58307e-06H520.517L524.477 4.13999ZM482.838 121.86L536.658 -8.58307e-06H580.758L584.898 4.13999L553.038 76.32L556.818 80.1H601.818L637.278 -8.58307e-06H681.378L685.518 4.13999L631.698 126H486.978L482.838 121.86ZM680.552 41.76L698.912 -8.58307e-06H843.272L847.412 4.13999L829.052 45.9H779.192L743.912 126H699.812V125.82L695.672 121.86L727.352 50.04V49.86L723.212 45.9H684.692L680.552 41.76Z" fill="#EDEDED"/>
</svg>
